<?xml version="1.0" encoding="UTF-8"?>
<!DOCTYPE svg PUBLIC "-//W3C//DTD SVG 1.1//EN" "http://www.w3.org/Graphics/SVG/1.1/DTD/svg11.dtd">
<!-- Creator: CorelDRAW -->
<svg xmlns="http://www.w3.org/2000/svg" xml:space="preserve" width="100%" height="100%" version="1.1" style="shape-rendering:geometricPrecision; text-rendering:geometricPrecision; image-rendering:optimizeQuality; fill-rule:evenodd; clip-rule:evenodd"
viewBox="0 0 10526.92 10526.92"
 xmlns:xlink="http://www.w3.org/1999/xlink"
 xmlns:xodm="http://www.corel.com/coreldraw/odm/2003">
 <defs>
  <style type="text/css">

    .fil4 {fill:#0D1A40}
    .fil2 {fill:#142864}
    .fil5 {fill:#8C9C33}
    .fil6 {fill:#B53A4D}
    .fil3 {fill:#CAE04A}
    .fil1 {fill:#DB485E}
    .fil0 {fill:url(#id0)}

  </style>
  <radialGradient id="id0" gradientUnits="userSpaceOnUse" gradientTransform="matrix(1.55626 -0 -0 1.03751 -2928 -197)" cx="5263.46" cy="5263.46" r="16321.2" fx="5263.46" fy="5263.46">
   <stop offset="0" style="stop-opacity:1; stop-color:white"/>
   <stop offset="0.25098" style="stop-opacity:1; stop-color:#CCE5E5"/>
   <stop offset="1" style="stop-opacity:1; stop-color:#99CCCC"/>
  </radialGradient>
 </defs>
 <g id="Слой_x0020_1">
  <metadata id="CorelCorpID_0Corel-Layer"/>
  <path class="fil0" d="M5263.46 10526.92c2906.93,0 5263.46,-2356.53 5263.46,-5263.46 0,-2906.93 -2356.53,-5263.46 -5263.46,-5263.46 -2906.93,0 -5263.46,2356.53 -5263.46,5263.46 0,2906.93 2356.53,5263.46 5263.46,5263.46z"/>
  <g id="_105553325533120">
   <path class="fil1" d="M3253.89 7980.02l-477.45 -393.2c731.78,-158.13 1396.65,-359.1 1985.92,-610.47 1334.53,-569.28 3310.49,-2054.06 3228.5,-3623.24 -18.72,-358.28 -153.5,-672.34 -425.89,-933.98 526.93,206.03 891.65,504.31 1087.29,898.73 181.41,365.71 189.56,747.21 85.5,1123.6 -427.93,1547.87 -2549.34,2995.18 -4003.07,3579.22 -527.78,212.05 -1092.71,385.84 -1691.44,521.04l210.64 -561.7z"/>
   <path class="fil2" d="M6512.87 7049.64c-88.03,419.87 -582.97,781.58 -1141.46,1134.24l-311.34 -303.35c-111.36,51.05 -220.12,97.86 -325.38,140.15 -185.49,74.53 -375.58,144.33 -570.1,209.39l1164.96 991.86c766.25,-544.31 1631,-1160.83 1923.53,-1747.39 180.24,-361.42 221.32,-724.48 110.58,-1089.33 -267.16,237.59 -555.49,460.59 -850.79,664.43z"/>
   <path class="fil1" d="M1936.91 3246.86c-565.52,919.03 3.74,2584.96 1483.46,4184.9 334.13,-89.35 651.98,-189.25 952.57,-300.58 -1165.09,-1210.77 -1873.72,-2590.35 -1750.37,-3600.67 52.2,-427.51 195.35,-763.55 603.03,-1095.58 -618.61,92.39 -1052.5,428.11 -1288.69,811.93z"/>
   <path class="fil2" d="M2609.62 3703.18c351.28,-594.52 1132.32,-538.15 1617.71,-249.33 179.55,106.84 369.3,267.5 538.52,445.78 140.59,-263.55 303.73,-499.7 485.84,-703.18 -272.65,-285.26 -569.06,-491.39 -887.31,-624.61 -333.91,-139.78 -741.16,-183.81 -1138.78,-136.91 -407.68,332.03 -550.83,668.07 -603.03,1095.58 -6.89,56.44 -11.18,114.02 -12.95,172.67z"/>
   <path class="fil2" d="M5733.26 4902.83c-88.62,227.24 -309.97,389.97 -664.23,560.41 -42.34,262.5 -66.26,547.19 -74,851.36 246.3,-93.05 464.85,-201.8 663.65,-294.2 763.55,-354.9 1177.28,-1293.89 532.87,-1742.13 -137.83,-95.87 -325.21,-171.36 -577.99,-204.22 183.45,161.34 245.95,505.06 119.7,828.78z"/>
   <path class="fil3" d="M6458.26 2429.47c-1435.9,368.77 -2438.11,2250.7 -2244.31,4532.36 51.99,56.78 105,113.24 158.99,169.35 133.23,-49.34 263.06,-100.93 389.42,-154.83 76.49,-32.63 155.09,-68.27 235.29,-106.76 -22.32,-695.49 22.95,-1309.57 157.55,-1816.03 324.07,-1219.42 1593.88,-2588.06 2829.03,-1421.65 9.11,-92.52 11.5,-185.51 6.63,-278.8 -18.72,-358.28 -153.5,-672.34 -425.89,-933.98 -418.93,-79.62 -785.44,-72.17 -1106.71,10.34z"/>
   <path class="fil4" d="M6782.96 5658.73c-149.11,-85.3 -300.2,-162.72 -457.3,-216.13 -147.13,230.27 -373.47,436.26 -645.99,567.85 160.62,40.75 314.46,99.56 463.12,172.16 221.38,-160.79 437.85,-336.37 640.17,-523.88z"/>
   <path class="fil4" d="M3073.89 3311.39c-208.99,-195.82 -57.15,-508.05 312.12,-890.42 -53.51,3.01 -107.05,7.67 -160.41,13.96 -407.68,332.03 -550.83,668.07 -603.03,1095.58 -6.89,56.44 -11.18,114.02 -12.95,172.67 116.38,-196.97 279.93,-322.49 464.27,-391.79z"/>
   <path class="fil5" d="M7564.97 2419.13c147.62,342.89 217.28,674.65 128.31,983.72 96.88,61.61 194.02,137.53 290.95,229.06 9.11,-92.52 11.5,-185.51 6.63,-278.8 -18.72,-358.28 -153.5,-672.34 -425.89,-933.98z"/>
   <path class="fil4" d="M5419.47 6132.73l-190.13 -751.26c-50.01,27.26 -103.45,54.41 -160.31,81.77 -42.34,262.5 -66.26,547.19 -74,851.36 151.34,-57.17 292.2,-120.28 424.44,-181.87z"/>
   <path class="fil4" d="M6317.37 7433.03c373.76,-109.77 742.83,-308.46 1106.89,-602.59 4.45,-148.12 -15.47,-296.53 -60.6,-445.23 -267.16,237.59 -555.49,460.59 -850.79,664.43 -27.91,133.12 -96.72,260.39 -195.5,383.39z"/>
   <path class="fil5" d="M4318.33 5151.41c288.71,-98.08 577.42,-165.75 866.13,-200.03 16.53,-53.89 34.84,-107.92 54.84,-161.87 -295.42,11.32 -587,68.83 -875.27,165.9 -16.32,64.5 -31.56,129.84 -45.7,196z"/>
   <path class="fil4" d="M4474.36 8493.81l818.56 -386.41 -232.85 -226.87c-111.36,51.05 -220.12,97.86 -325.38,140.15 -185.49,74.53 -375.58,144.33 -570.1,209.39l309.77 263.74z"/>
   <path class="fil1" d="M5613.56 4074.05c-781.74,-76.99 -1503.5,137.23 -2191.22,516.96l332.44 211.56 -85.63 463.4c678.69,-375.85 1373.74,-555.32 2092.72,-447.61 85.9,-297.45 19.24,-596.95 -148.31,-744.31z"/>
   <path class="fil6" d="M4230.89 6980.28l-956.98 289.57c47.78,54.02 96.6,108 146.46,161.91 334.13,-89.35 651.98,-189.25 952.57,-300.58 -48.14,-50.02 -95.49,-100.34 -142.05,-150.9z"/>
  </g>
 </g>
</svg>
