<?xml version="1.0" encoding="UTF-8"?>
<!DOCTYPE svg PUBLIC "-//W3C//DTD SVG 1.1//EN" "http://www.w3.org/Graphics/SVG/1.1/DTD/svg11.dtd">
<!-- Creator: CorelDRAW -->
<svg xmlns="http://www.w3.org/2000/svg" xml:space="preserve" width="100%" height="100%" version="1.1" style="shape-rendering:geometricPrecision; text-rendering:geometricPrecision; image-rendering:optimizeQuality; fill-rule:evenodd; clip-rule:evenodd"
viewBox="0 0 10860.9 10860.89"
 xmlns:xlink="http://www.w3.org/1999/xlink"
 xmlns:xodm="http://www.corel.com/coreldraw/odm/2003">
 <defs>
  <style type="text/css">
    .fil0 {fill:#5689B5}
    .fil2 {fill:#83B16E}
    .fil1 {fill:#F4AA32}
  </style>
 </defs>
 <g id="Слой_x0020_1">
  <metadata id="CorelCorpID_0Corel-Layer"/>
  <g id="_105553260377248">
   <path class="fil0" d="M1325.18 2215.92c-473.13,-202.17 -911,-463.1 -1325.17,-763.57 208.11,1244.77 506.87,2424.83 889.46,3544.98 256.79,-402.65 541.87,-766.38 889.47,-1044.16 444.09,1114.04 1154.56,2004.34 2088.31,2707.07 -204.96,-957.33 -276.35,-1954.71 -219.15,-2990.67 55.5,-81.5 115.37,-162.45 179.55,-242.85 488.26,-611.64 1226.91,-1191.96 2205.25,-1742.33 -949.01,-524.41 -1997.3,-987.59 -2956.53,-1297.15 95.62,184.2 149.64,393.44 149.64,615.32 0,422.57 -195.97,799.37 -501.99,1044.46 -228.89,183.34 -519.38,292.98 -835.46,292.98 -162.8,0 -318.79,-29.08 -463.09,-82.34 -34.1,-12.59 -67.55,-26.53 -100.29,-41.74zm563.38 -2119.98c500.71,0 906.62,405.91 906.62,906.62 0,500.71 -405.91,906.61 -906.62,906.61 -500.71,0 -906.61,-405.9 -906.61,-906.61 0,-500.71 405.9,-906.62 906.61,-906.62z"/>
   <path class="fil1" d="M2215.92 9535.72c-202.17,473.13 -463.09,911 -763.57,1325.17 1244.77,-208.11 2424.83,-506.87 3544.98,-889.46 -402.64,-256.79 -766.38,-541.87 -1044.16,-889.47 1114.04,-444.09 2004.34,-1154.56 2707.07,-2088.31 -957.33,204.95 -1954.71,276.35 -2990.67,219.15 -81.5,-55.5 -162.45,-115.37 -242.85,-179.55 -611.63,-488.26 -1191.96,-1226.92 -1742.33,-2205.26 -524.41,949.02 -987.59,1997.31 -1297.15,2956.54 184.2,-95.62 393.44,-149.64 615.32,-149.64 422.57,0 799.37,195.97 1044.46,501.99 183.34,228.89 292.98,519.38 292.98,835.46 0,162.79 -29.08,318.79 -82.34,463.09 -12.59,34.1 -26.53,67.55 -41.74,100.29zm-2119.98 -563.38c0,-500.72 405.91,-906.62 906.62,-906.62 500.71,0 906.61,405.9 906.61,906.62 0,500.71 -405.9,906.61 -906.61,906.61 -500.71,0 -906.62,-405.9 -906.62,-906.61z"/>
   <path class="fil2" d="M9535.72 8644.98c473.13,202.17 911,463.09 1325.17,763.57 -208.11,-1244.77 -506.87,-2424.83 -889.46,-3544.98 -256.79,402.64 -541.87,766.38 -889.47,1044.16 -444.09,-1114.04 -1154.56,-2004.34 -2088.31,-2707.07 204.96,957.33 276.35,1954.71 219.15,2990.67 -55.5,81.5 -115.37,162.45 -179.55,242.85 -488.26,611.63 -1226.91,1191.96 -2205.25,1742.33 949.01,524.4 1997.3,987.59 2956.53,1297.15 -95.62,-184.2 -149.64,-393.44 -149.64,-615.32 0,-422.57 195.97,-799.37 501.99,-1044.46 228.89,-183.34 519.38,-292.98 835.46,-292.98 162.8,0 318.79,29.08 463.09,82.34 34.1,12.58 67.55,26.53 100.29,41.74zm-563.38 2119.98c-500.71,0 -906.62,-405.91 -906.62,-906.62 0,-500.71 405.91,-906.61 906.62,-906.61 500.71,0 906.61,405.9 906.61,906.61 0,500.71 -405.9,906.62 -906.61,906.62z"/>
   <path class="fil1" d="M8644.98 1325.18c202.17,-473.13 463.09,-911 763.57,-1325.17 -1244.77,208.11 -2424.83,506.87 -3544.98,889.46 402.64,256.79 766.38,541.87 1044.16,889.47 -1114.04,444.09 -2004.34,1154.56 -2707.07,2088.31 957.33,-204.96 1954.71,-276.35 2990.67,-219.15 81.5,55.5 162.45,115.37 242.85,179.55 611.63,488.26 1191.96,1226.91 1742.33,2205.25 524.41,-949.01 987.59,-1997.3 1297.15,-2956.54 -184.2,95.62 -393.44,149.65 -615.32,149.65 -422.57,0 -799.37,-195.97 -1044.46,-501.99 -183.34,-228.89 -292.98,-519.38 -292.98,-835.46 0,-162.8 29.08,-318.79 82.34,-463.09 12.59,-34.1 26.53,-67.55 41.74,-100.29zm2119.98 563.38c0,500.71 -405.91,906.62 -906.62,906.62 -500.71,0 -906.61,-405.91 -906.61,-906.62 0,-500.71 405.9,-906.61 906.61,-906.61 500.71,0 906.62,405.9 906.62,906.61z"/>
  </g>
 </g>
</svg>
